<?xml version="1.0" standalone="no"?>
<!DOCTYPE svg PUBLIC "-//W3C//DTD SVG 20010904//EN"
 "http://www.w3.org/TR/2001/REC-SVG-20010904/DTD/svg10.dtd">
<svg version="1.0" xmlns="http://www.w3.org/2000/svg"
 width="700.000000pt" height="700.000000pt" viewBox="0 0 700.000000 700.000000"
 preserveAspectRatio="xMidYMid meet">
<metadata>
Created by potrace 1.11, written by Peter Selinger 2001-2013
</metadata>
<g transform="translate(0.000000,700.000000) scale(0.100000,-0.100000)"
fill="#000000" stroke="none">
<path d="M3210 6834 c-157 -91 -316 -183 -355 -205 -101 -58 -152 -87 -220
-128 l-60 -36 0 -678 c0 -372 -3 -677 -7 -677 -3 0 -33 15 -65 34 -57 33 -535
310 -601 347 -98 56 -183 105 -326 188 -88 51 -165 95 -172 98 -7 3 -59 -22
-116 -54 -186 -108 -641 -370 -728 -420 l-85 -49 -3 -536 -2 -537 92 -54 c84
-48 459 -265 533 -307 17 -10 75 -43 130 -75 55 -32 109 -63 120 -69 128 -71
295 -172 295 -178 0 -4 -15 -15 -32 -24 -18 -9 -100 -56 -183 -104 -499 -288
-642 -371 -805 -464 -66 -38 -128 -74 -136 -80 -13 -10 -15 -82 -16 -540 0
-433 2 -530 13 -540 8 -7 176 -106 374 -221 472 -273 454 -263 500 -286 l41
-21 84 50 c47 27 130 75 185 107 55 32 228 132 385 223 157 90 301 174 320
185 19 10 69 39 111 63 42 24 79 44 82 44 4 0 7 -305 7 -678 l0 -677 23 -14
c20 -13 72 -44 177 -103 19 -11 188 -108 374 -216 187 -107 345 -195 351 -195
5 0 55 26 110 58 55 32 120 69 145 83 25 14 126 72 225 130 99 57 198 115 220
127 22 12 82 46 133 76 l92 53 0 683 0 682 158 -91 c86 -50 182 -105 212 -121
30 -17 67 -38 82 -49 14 -10 28 -18 31 -18 3 0 78 -43 167 -95 89 -52 163 -95
165 -95 1 0 80 -45 176 -101 95 -55 180 -101 189 -102 8 0 180 94 380 210 201
116 407 234 458 263 l92 52 0 532 0 532 -87 50 c-49 28 -230 133 -403 234
-173 100 -335 194 -359 207 -24 14 -104 61 -178 104 -75 43 -139 79 -145 79
-15 0 1 18 30 33 15 7 83 47 152 87 69 40 143 83 165 96 22 12 139 79 260 149
121 70 245 141 275 158 98 55 275 159 284 167 5 5 9 240 9 537 l0 528 -44 28
c-78 50 -510 297 -520 297 -5 0 -9 5 -9 10 0 6 -5 10 -10 10 -6 0 -52 25 -102
55 -50 30 -93 55 -95 55 -3 0 -36 19 -74 41 l-69 41 -579 -331 c-319 -182
-586 -333 -594 -337 -12 -4 -14 84 -14 669 0 371 -3 679 -7 685 -3 6 -19 17
-34 25 -15 7 -130 73 -257 146 -126 73 -306 177 -398 230 -92 53 -180 104
-195 113 -15 9 -29 17 -32 17 -3 0 -133 -74 -290 -165z m178 -1304 c0 -561 -2
-1020 -4 -1020 -2 0 -110 61 -239 136 l-235 137 0 746 0 746 166 95 c91 52
198 114 237 137 40 23 73 42 73 42 1 1 2 -458 2 -1019z m441 893 c102 -58 203
-117 224 -130 l37 -23 -2 -746 -3 -745 -100 -58 c-55 -32 -159 -92 -232 -135
-73 -42 -135 -76 -138 -76 -3 0 -5 457 -5 1016 0 931 1 1016 16 1010 9 -3 100
-54 203 -113z m-2549 -1367 l0 -274 -37 -23 c-21 -12 -57 -33 -81 -46 -23 -13
-83 -48 -133 -78 -51 -30 -93 -55 -95 -55 -2 0 -29 -16 -61 -35 -32 -19 -61
-35 -65 -35 -3 0 -6 123 -6 274 l0 274 232 135 c127 74 234 135 239 136 4 1 7
-122 7 -273z m382 186 c84 -49 173 -100 198 -114 25 -14 133 -76 240 -138 228
-132 392 -227 580 -334 74 -42 142 -81 150 -86 32 -19 177 -104 220 -127 25
-14 81 -47 125 -73 44 -26 110 -64 146 -84 l66 -36 0 -275 c0 -215 -3 -275
-12 -271 -7 2 -302 172 -656 377 -354 204 -669 386 -699 403 -90 51 -274 157
-290 167 -8 5 -62 36 -120 69 l-105 60 -1 275 c-1 151 0 275 2 275 1 0 72 -40
156 -88z m3833 -197 l0 -266 -195 -112 c-167 -95 -712 -412 -813 -471 -18 -10
-52 -30 -77 -44 -25 -14 -184 -106 -355 -204 -170 -99 -330 -191 -355 -206
-25 -14 -55 -32 -67 -40 l-22 -14 0 279 0 280 197 113 c108 63 267 154 352
203 85 49 214 123 285 165 72 41 150 86 175 100 25 14 89 52 143 84 55 32 100
58 102 58 3 0 187 107 225 130 15 9 120 69 175 100 17 10 66 38 110 64 44 25
87 50 95 55 8 5 17 5 20 0 3 -4 5 -127 5 -274z m460 152 c105 -61 199 -115
210 -121 11 -6 22 -12 25 -14 6 -5 7 -552 0 -552 -3 0 -39 20 -80 43 -233 135
-376 220 -384 227 -7 7 -13 457 -7 538 1 16 -10 21 236 -121z m-4425 -690 c19
-10 168 -96 330 -190 592 -342 790 -456 1035 -596 138 -79 261 -151 275 -160
14 -9 42 -25 62 -36 20 -10 35 -22 32 -26 -5 -8 -443 -263 -460 -267 -15 -4 8
-17 -589 329 -231 133 -431 249 -445 256 -14 8 -38 22 -55 32 -16 10 -196 114
-400 231 -203 117 -376 218 -383 224 -10 10 -3 18 35 39 26 14 133 75 237 135
l189 110 51 -30 c28 -17 67 -40 86 -51z m4319 -59 c126 -73 227 -136 223 -140
-7 -6 -445 -262 -542 -316 -25 -13 -72 -40 -105 -60 -73 -42 -239 -139 -280
-162 -16 -10 -145 -84 -285 -165 -140 -81 -268 -155 -285 -165 -16 -9 -106
-61 -199 -115 l-168 -98 -42 21 c-22 12 -71 38 -107 59 -36 21 -125 72 -197
113 -73 41 -132 77 -132 80 0 5 17 15 100 62 19 11 208 121 420 243 212 122
401 232 420 242 19 11 100 58 180 105 80 46 152 87 160 91 8 4 24 13 35 20 11
7 83 49 160 93 77 45 194 114 260 152 66 39 128 71 137 71 10 1 121 -59 247
-131z m-3603 -1164 c208 -121 203 -117 267 -154 52 -29 56 -34 40 -45 -10 -6
-108 -64 -218 -127 -408 -236 -651 -376 -685 -395 -19 -11 -75 -44 -125 -73
-49 -29 -108 -62 -130 -75 -22 -12 -164 -94 -316 -182 l-277 -160 0 273 c0
242 1 274 16 287 9 8 67 42 127 76 61 34 126 71 145 83 19 11 154 89 300 173
146 84 281 162 300 174 19 11 42 24 50 28 8 4 38 20 65 36 28 17 70 41 95 55
25 14 77 44 115 68 39 23 72 43 76 43 3 1 72 -38 155 -85z m2814 -4 c237 -137
444 -256 490 -282 61 -35 488 -282 575 -333 l70 -41 0 -264 c1 -146 0 -268 -3
-273 -4 -9 -54 18 -452 248 -179 103 -458 264 -620 358 -162 93 -312 181 -332
193 -21 13 -40 24 -42 24 -2 0 -49 26 -103 58 -54 31 -114 66 -135 76 -94 50
-98 43 73 141 85 49 173 99 195 111 23 12 59 33 80 47 22 14 46 24 54 21 8 -3
76 -40 150 -84z m-1672 -1063 l0 -1084 -230 -134 c-127 -74 -234 -135 -239
-137 -5 -2 -9 444 -9 1082 l0 1086 38 23 c20 13 44 27 52 30 8 4 96 54 195
112 99 58 183 105 186 105 4 0 7 -487 7 -1083z m377 998 c22 -12 104 -59 183
-105 l142 -82 0 -1084 c0 -597 -3 -1083 -7 -1081 -5 2 -113 64 -240 137 l-233
133 0 1084 0 1085 58 -33 c31 -17 75 -42 97 -54z m-1080 -589 c0 -151 -2 -277
-5 -279 -3 -3 -106 -63 -230 -135 -124 -71 -245 -141 -270 -156 -25 -14 -97
-55 -160 -92 -63 -36 -131 -74 -150 -86 -131 -75 -328 -189 -396 -228 l-81
-47 -236 136 c-131 74 -237 138 -237 141 0 3 10 10 23 16 22 11 79 44 344 197
72 42 147 85 165 95 18 11 119 69 223 129 338 196 779 450 815 470 19 11 69
41 110 66 41 25 77 46 80 46 3 1 6 -122 5 -273z m1850 147 c66 -38 140 -81
165 -95 25 -14 128 -74 230 -133 179 -104 253 -147 295 -169 11 -6 31 -19 45
-27 37 -24 761 -441 787 -453 13 -6 23 -13 23 -16 0 -5 -180 -109 -319 -186
-31 -17 -76 -43 -101 -59 -25 -16 -49 -28 -55 -28 -5 0 -48 23 -95 50 -47 28
-105 61 -130 75 -47 26 -567 327 -700 404 -41 24 -140 82 -220 128 l-145 84
-1 276 -1 276 51 -29 c28 -16 105 -60 171 -98z m-796 -1972 c127 -74 228 -138
224 -142 -11 -9 -437 -257 -456 -264 -11 -5 -327 170 -469 258 -14 9 -3 19 73
64 50 29 109 63 132 75 23 12 49 28 57 34 8 6 40 25 70 41 30 16 71 40 90 51
19 12 38 21 41 19 3 -1 110 -62 238 -136z"/>
</g>
</svg>
